<mxfile host="app.diagrams.net" modified="2023-06-24T19:56:41.133Z" agent="Mozilla/5.0 (Windows NT 10.0; Win64; x64) AppleWebKit/537.36 (KHTML, like Gecko) Chrome/114.0.0.0 Safari/537.36" version="21.5.0" etag="MmtgioN3BoLbj25b0t9L" type="github">
  <diagram name="Страница 1" id="lTekilg8u8D-bGV2ZVYH">
    <mxGraphModel>
      <root>
        <mxCell id="0" />
        <mxCell id="1" parent="0" />
      </root>
    </mxGraphModel>
  </diagram>
</mxfile>
